<svg width="0" height="0" class="hidden">
<symbol xmlns="http://www.w3.org/2000/svg" viewBox="0 0 15 16" id="play">
    <g clip-path="url(#clip0)">
    <path d="M12.809 5.48L6.846 1.105a3.125 3.125 0 00-4.971 2.52v8.75a3.125 3.125 0 004.973 2.52l5.963-4.376a3.125 3.125 0 000-5.04l-.002.001zm-.74 4.031l-5.963 4.375a1.875 1.875 0 01-2.981-1.511v-8.75a1.842 1.842 0 011.026-1.67 1.856 1.856 0 011.956.163l5.962 4.375a1.875 1.875 0 010 3.023V9.51z"></path>
    </g>
    <defs>
    <clipPath id="clip0">
        <path transform="translate(0 .5)" d="M0 0h15v15H0z"></path>
    </clipPath>
    </defs>
</symbol>
</svg>