<svg width="0" height="0" class="hidden">
<symbol xmlns="http://www.w3.org/2000/svg" viewBox="0 0 15 16" id="play">
    <g clip-path="url(#clip0)">
    <path d="M12.809 5.48L6.846 1.105a3.125 3.125 0 00-4.971 2.52v8.75a3.125 3.125 0 004.973 2.52l5.963-4.376a3.125 3.125 0 000-5.04l-.002.001zm-.74 4.031l-5.963 4.375a1.875 1.875 0 01-2.981-1.511v-8.75a1.842 1.842 0 011.026-1.67 1.856 1.856 0 011.956.163l5.962 4.375a1.875 1.875 0 010 3.023V9.51z"></path>
    </g>
    <defs>
    <clipPath id="clip0">
        <path transform="translate(0 .5)" d="M0 0h15v15H0z"></path>
    </clipPath>
    </defs>
</symbol>
<symbol xmlns="http://www.w3.org/2000/svg" viewBox="0 0 15 16" id="ticket">
<g clip-path="url(#clip0)">
    <path d="M10 .5h-.081a1.262 1.262 0 00-1.213.958 1.25 1.25 0 01-2.412 0A1.263 1.263 0 005.081.5H5a3.129 3.129 0 00-3.125 3.125v10A1.875 1.875 0 003.75 15.5h1.331a1.263 1.263 0 001.213-.957 1.25 1.25 0 012.412 0 1.263 1.263 0 001.213.957h1.331a1.875 1.875 0 001.875-1.875v-10A3.129 3.129 0 0010 .5zm1.25 13.75l-1.34-.04a2.5 2.5 0 00-4.829.04H3.75a.625.625 0 01-.625-.625v-2.5h1.25a.625.625 0 100-1.25h-1.25v-6.25A1.875 1.875 0 015 1.75l.09.04A2.506 2.506 0 007.5 3.624 2.544 2.544 0 009.933 1.75H10a1.875 1.875 0 011.875 1.875v6.25h-1.25a.625.625 0 100 1.25h1.25v2.5a.624.624 0 01-.625.625z"></path>
    <path d="M8.125 9.875h-1.25a.625.625 0 100 1.25h1.25a.625.625 0 100-1.25z"></path>
</g>
<defs>
    <clipPath id="clip0">
    <path transform="translate(0 .5)" d="M0 0h15v15H0z"></path>
    </clipPath>
</defs>
</symbol>
<symbol xmlns="http://www.w3.org/2000/svg" viewBox="0 0 835 207" id="main__title">
<path d="M32.136 2.4H.168L31.272 204h47.232L109.608 2.4H80.52L56.328 166.848 32.136 2.4zm138.339 28.8h54.72V2.4h-86.4V204h86.4v-28.8h-54.72v-59.04h43.488v-28.8h-43.488V31.2zM326.906 204h32.544V2.4h-28.224v120.672L298.682 2.4h-39.744V204h28.512V57.984L326.906 204zm98.715-155.232c0-14.4 6.336-19.872 16.416-19.872s16.416 5.472 16.416 19.872v108.864c0 14.4-6.336 19.872-16.416 19.872s-16.416-5.472-16.416-19.872V48.768zm-31.68 106.848c0 32.256 16.992 50.688 48.096 50.688 31.104 0 48.096-18.432 48.096-50.688V50.784c0-32.256-16.992-50.688-48.096-50.688-31.104 0-48.096 18.432-48.096 50.688v104.832zM568.896 2.4h-44.064V204h27.648V61.44L576.096 204h29.952l21.888-144.576V204h29.952V2.4h-44.064l-21.6 143.136L568.896 2.4zm233.939 49.536c0 58.176-62.784 67.968-62.784 127.296V204h91.584v-28.8h-59.904c-.288-1.44-.288-2.88-.288-4.32 0-33.12 63.072-56.736 63.072-120.096 0-32.256-16.128-50.688-47.232-50.688s-47.232 18.432-47.232 50.688v19.584h29.952v-21.6c0-14.4 6.336-19.872 16.416-19.872s16.416 4.896 16.416 23.04z"></path>
</symbol>
<symbol fill="none" xmlns="http://www.w3.org/2000/svg" viewBox="0 0 24 16" id="menu">
<path stroke="#fff" stroke-opacity=".8" stroke-width="2" stroke-linecap="round" stroke-linejoin="round" d="M1 1h22M1 8h22M1 15h22"></path>
</symbol>
<symbol fill="none" xmlns="http://www.w3.org/2000/svg" viewBox="0 0 25 20" id="close_menu">
<path d="M1 9a1 1 0 100 2V9zm22 1l.707.707.707-.707-.707-.707L23 10zM14.707.293a1 1 0 10-1.414 1.414L14.707.293zm-1.414 18a1 1 0 001.414 1.414l-1.414-1.414zM1 11h22V9H1v2zm12.293-9.293l9 9 1.414-1.414-9-9-1.414 1.414zm9 7.586l-9 9 1.414 1.414 9-9-1.414-1.414z" fill="#000"></path>
</symbol>
</svg>